# xmcd
#
# Track frame offsets: 
#        180
#        13394
#        27506
#        44176
#        54327
#        70204
#        83808
#        92371
#        101485
#        116139
#        129185
#        145533
#        167254
#        181708
#
# Disc length: 2861 seconds
#
# Revision: 2
# Processed by: cddbd v1.5.2PL0 Copyright (c) Steve Scherf et al.
# Submitted via: ExactAudioCopyFreeDBPlugin 1.0
#
DISCID=b00b2b0e
DTITLE=Killbilly - Foggy Mountain Anarchy
DYEAR=1994
DGENRE=Metal
TTITLE0=Mountain Dew or Die
TTITLE1=Wondering if it's True
TTITLE2=Heaven is a Small Town
TTITLE3=Shame the Devil
TTITLE4=Jesse James
TTITLE5=I Wonder if I'll Ever be the Same
TTITLE6=Who's Afraid of Frogs
TTITLE7=Cheatin' Side of Town
TTITLE8=Holding Back the Tears
TTITLE9=Diesel Dazey
TTITLE10=Running Gun
TTITLE11=Pass That Whiskey 'Round
TTITLE12=Hare Krsna
TTITLE13=Drivin' Around
EXTD=
EXTT0=
EXTT1=
EXTT2=
EXTT3=
EXTT4=
EXTT5=
EXTT6=
EXTT7=
EXTT8=
EXTT9=
EXTT10=
EXTT11=
EXTT12=
EXTT13=
PLAYORDER=
